<svg width="14" height="14" viewBox="0 0 14 14" fill="none" xmlns="http://www.w3.org/2000/svg">
<path fill-rule="evenodd" clip-rule="evenodd" d="M7 0C7.47146 5.0882e-08 7.85366 0.382196 7.85366 0.853658L7.85366 6.14634H13.1463C13.6178 6.14634 14 6.52854 14 7C14 7.47146 13.6178 7.85366 13.1463 7.85366H7.85366L7.85366 13.1463C7.85366 13.6178 7.47146 14 7 14C6.52854 14 6.14634 13.6178 6.14634 13.1463L6.14634 7.85366H0.853658C0.382196 7.85366 0 7.47146 0 7C0 6.52854 0.382196 6.14634 0.853658 6.14634H6.14634L6.14634 0.853658C6.14634 0.382196 6.52854 0 7 0Z" fill="white"/>
</svg>
