<svg width="16" height="16" viewBox="0 0 16 16" fill="none" xmlns="http://www.w3.org/2000/svg">
<path fill-rule="evenodd" clip-rule="evenodd" d="M9.99834 1.50943C9.58149 1.50943 9.24358 1.17154 9.24358 0.754717C9.24358 0.337898 9.58149 0 9.99834 0H15.2452C15.6621 0 16 0.337898 16 0.754717V6.0013C16 6.41812 15.6621 6.75602 15.2452 6.75602C14.8284 6.75602 14.4905 6.41812 14.4905 6.0013V2.57676L9.65755 7.4094C9.3628 7.70414 8.88491 7.70414 8.59016 7.4094C8.2954 7.11467 8.29541 6.63681 8.59016 6.34207L13.4231 1.50943H9.99834ZM7.40984 8.5906C7.70459 8.88533 7.70459 9.36319 7.40984 9.65793L2.57692 14.4906H6.00166C6.4185 14.4906 6.75642 14.8285 6.75642 15.2453C6.75642 15.6621 6.4185 16 6.00166 16H0.754762C0.337918 16 0 15.6621 0 15.2453V9.99869C0 9.58188 0.337918 9.24398 0.754762 9.24398C1.17161 9.24398 1.50952 9.58188 1.50952 9.99869V13.4232L6.34245 8.5906C6.6372 8.29586 7.11509 8.29586 7.40984 8.5906Z" fill="white"/>
</svg>
