<svg width="14" height="14" viewBox="0 0 14 14" fill="none" xmlns="http://www.w3.org/2000/svg">
<path fill-rule="evenodd" clip-rule="evenodd" d="M13.8066 0.193422C14.0645 0.451318 14.0645 0.869449 13.8066 1.12735L9.57774 5.35594L12.5744 5.35594C12.9391 5.35594 13.2348 5.65161 13.2348 6.01632C13.2348 6.38104 12.9391 6.67671 12.5744 6.67671L7.98334 6.67671C7.6186 6.67671 7.32292 6.38104 7.32292 6.01632V1.42552C7.32292 1.0608 7.6186 0.765134 7.98334 0.765134C8.34808 0.765134 8.64376 1.0608 8.64376 1.42552V4.42202L12.8726 0.193422C13.1305 -0.064474 13.5487 -0.064474 13.8066 0.193422ZM0.765177 7.98367C0.765177 7.61896 1.06086 7.32329 1.4256 7.32329L6.01666 7.32329C6.3814 7.32329 6.67708 7.61896 6.67708 7.98368L6.67708 12.5745C6.67708 12.9392 6.3814 13.2349 6.01666 13.2349C5.65192 13.2349 5.35624 12.9392 5.35624 12.5745L5.35624 9.57798L1.12741 13.8066C0.869497 14.0645 0.451343 14.0645 0.193432 13.8066C-0.0644775 13.5487 -0.0644775 13.1306 0.193433 12.8727L4.42226 8.64406H1.4256C1.06086 8.64406 0.765177 8.34839 0.765177 7.98367Z" fill="white"/>
</svg>
