<svg width="12" height="10" viewBox="0 0 12 10" fill="none" xmlns="http://www.w3.org/2000/svg">
<path fill-rule="evenodd" clip-rule="evenodd" d="M8.82353 0.5C10.5778 0.5 12 1.92215 12 3.67647C12 5.43079 10.5778 6.85294 8.82353 6.85294H4.72941C3.67682 6.85294 2.82353 5.99965 2.82353 4.94706C2.82353 3.89447 3.67682 3.04118 4.72941 3.04118H8.68235C8.95525 3.04118 9.17647 3.2624 9.17647 3.53529C9.17647 3.80819 8.95525 4.02941 8.68235 4.02941H4.72941C4.22261 4.02941 3.81176 4.44026 3.81176 4.94706C3.81176 5.45386 4.22261 5.86471 4.72941 5.86471H8.82353C10.0321 5.86471 11.0118 4.885 11.0118 3.67647C11.0118 2.46794 10.0321 1.48824 8.82353 1.48824H4.44706C2.5368 1.48824 0.988235 3.0368 0.988235 4.94706C0.988235 6.85732 2.5368 8.40588 4.44706 8.40588H8.68235C8.95525 8.40588 9.17647 8.62711 9.17647 8.9C9.17647 9.1729 8.95525 9.39412 8.68235 9.39412H4.44706C1.99101 9.39412 -9.53674e-07 7.4031 -9.53674e-07 4.94706C-9.53674e-07 2.49102 1.99101 0.5 4.44706 0.5H8.82353Z" fill="#737373"/>
</svg>
