<svg width="16" height="16" viewBox="0 0 16 16" fill="none" xmlns="http://www.w3.org/2000/svg">
<path fill-rule="evenodd" clip-rule="evenodd" d="M0 8C0 3.58172 3.58172 0 8 0C12.4183 0 16 3.58172 16 8C16 12.4183 12.4183 16 8 16C3.58172 16 0 12.4183 0 8ZM8 1.54839C4.43687 1.54839 1.54839 4.43687 1.54839 8C1.54839 11.5631 4.43687 14.4516 8 14.4516C11.5631 14.4516 14.4516 11.5631 14.4516 8C14.4516 4.43687 11.5631 1.54839 8 1.54839ZM11.0701 5.83317C11.3724 6.13552 11.3724 6.62571 11.0701 6.92805L7.64421 10.3539C7.34187 10.6562 6.85168 10.6562 6.54934 10.3539L5.38156 9.18611C5.07922 8.88377 5.07922 8.39358 5.38156 8.09124C5.6839 7.7889 6.1741 7.7889 6.47644 8.09124L7.09677 8.71158L9.97517 5.83317C10.2775 5.53083 10.7677 5.53083 11.0701 5.83317Z" fill="#22C55E"/>
</svg>
