<svg width="12" height="10" viewBox="0 0 12 10" fill="none" xmlns="http://www.w3.org/2000/svg">
<path fill-rule="evenodd" clip-rule="evenodd" d="M5.74181 0.560067C5.90391 0.479978 6.09609 0.479978 6.25819 0.560067L11.692 3.24478C11.881 3.33815 11.9999 3.52562 11.9999 3.73031C11.9999 3.93499 11.881 4.12246 11.692 4.21583L6.25819 6.90054C6.09609 6.98063 5.90391 6.98063 5.74181 6.90054L0.307956 4.21583C0.11898 4.12246 0.0001195 3.93499 0.0001195 3.73031C0.0001195 3.52562 0.11898 3.33815 0.307956 3.24478L5.74181 0.560067ZM1.80704 3.73031L6 5.80193L10.193 3.73031L6 1.65868L1.80704 3.73031ZM0.062436 6.02083C0.205031 5.75268 0.546145 5.64673 0.824336 5.78417L6 8.34132L11.1757 5.78417C11.4539 5.64673 11.795 5.75268 11.9376 6.02083C12.0802 6.28897 11.9702 6.61777 11.692 6.75522L6.25819 9.43993C6.09609 9.52002 5.90391 9.52002 5.74181 9.43993L0.307956 6.75522C0.0297643 6.61777 -0.0801586 6.28897 0.062436 6.02083Z" fill="#737373"/>
</svg>
