<svg width="16" height="16" viewBox="0 0 16 16" fill="none" xmlns="http://www.w3.org/2000/svg">
<path fill-rule="evenodd" clip-rule="evenodd" d="M8 1.54839C4.43687 1.54839 1.54839 4.43687 1.54839 8C1.54839 11.5631 4.43687 14.4516 8 14.4516C11.5631 14.4516 14.4516 11.5631 14.4516 8C14.4516 4.43687 11.5631 1.54839 8 1.54839ZM0 8C0 3.58172 3.58172 0 8 0C12.4183 0 16 3.58172 16 8C16 12.4183 12.4183 16 8 16C3.58172 16 0 12.4183 0 8ZM8 5.16129C6.43222 5.16129 5.16129 6.43222 5.16129 8C5.16129 9.56778 6.43222 10.8387 8 10.8387C9.56778 10.8387 10.8387 9.56778 10.8387 8C10.8387 6.43222 9.56778 5.16129 8 5.16129ZM3.6129 8C3.6129 5.57707 5.57707 3.6129 8 3.6129C10.4229 3.6129 12.3871 5.57707 12.3871 8C12.3871 10.4229 10.4229 12.3871 8 12.3871C5.57707 12.3871 3.6129 10.4229 3.6129 8ZM7.22581 8C7.22581 7.57242 7.57242 7.22581 8 7.22581H8.06398C8.49156 7.22581 8.83818 7.57242 8.83818 8V8.05786C8.83818 8.48544 8.49156 8.83206 8.06398 8.83206H8C7.57242 8.83206 7.22581 8.48544 7.22581 8.05786V8Z" fill="#F59E0B"/>
</svg>
