<svg width="16" height="16" viewBox="0 0 16 16" fill="none" xmlns="http://www.w3.org/2000/svg">
<path fill-rule="evenodd" clip-rule="evenodd" d="M14.4516 8C14.4516 4.43687 11.5631 1.54839 8 1.54839C4.43687 1.54839 1.54839 4.43687 1.54839 8C1.54839 11.5631 4.43687 14.4516 8 14.4516C11.5631 14.4516 14.4516 11.5631 14.4516 8ZM8 -3.49691e-07C12.4183 -1.56562e-07 16 3.58172 16 8C16 12.4183 12.4183 16 8 16C3.58172 16 -5.4282e-07 12.4183 -3.49691e-07 8C-1.56562e-07 3.58172 3.58172 -5.4282e-07 8 -3.49691e-07ZM11.2571 4.74288C11.5595 5.04523 11.5595 5.53542 11.2571 5.83776L5.83776 11.2571C5.53542 11.5595 5.04523 11.5595 4.74289 11.2571C4.44055 10.9548 4.44055 10.4646 4.74289 10.1622L10.1622 4.74288C10.4646 4.44054 10.9548 4.44054 11.2571 4.74288Z" fill="#EF4444"/>
</svg>
