<svg width="16" height="16" viewBox="0 0 16 16" fill="none" xmlns="http://www.w3.org/2000/svg">
<path fill-rule="evenodd" clip-rule="evenodd" d="M0 8C0 3.58172 3.58172 0 8 0C12.4183 0 16 3.58172 16 8C16 12.4183 12.4183 16 8 16C3.58172 16 0 12.4183 0 8ZM8 1.54839C4.43687 1.54839 1.54839 4.43687 1.54839 8C1.54839 11.5631 4.43687 14.4516 8 14.4516C11.5631 14.4516 14.4516 11.5631 14.4516 8C14.4516 4.43687 11.5631 1.54839 8 1.54839ZM4.51613 6.30645C4.51613 5.31768 5.31768 4.51613 6.30645 4.51613H9.69355C10.6823 4.51613 11.4839 5.31768 11.4839 6.30645V9.69355C11.4839 10.6823 10.6823 11.4839 9.69355 11.4839H6.30645C5.31768 11.4839 4.51613 10.6823 4.51613 9.69355V6.30645ZM6.30645 6.06452C6.17283 6.06452 6.06452 6.17283 6.06452 6.30645V9.69355C6.06452 9.82716 6.17283 9.93548 6.30645 9.93548H9.69355C9.82716 9.93548 9.93548 9.82716 9.93548 9.69355V6.30645C9.93548 6.17283 9.82716 6.06452 9.69355 6.06452H6.30645Z" fill="#737373"/>
</svg>
