<svg width="10" height="12" viewBox="0 0 10 12" fill="none" xmlns="http://www.w3.org/2000/svg">
<path fill-rule="evenodd" clip-rule="evenodd" d="M9.875 10.7273C9.875 10.9884 9.65674 11.2 9.3875 11.2L7.50163 11.2C5.07848 11.2 3.11413 9.29522 3.11413 6.9455L3.11413 2.43974L0.962559 4.59235C0.775176 4.77982 0.466545 4.7845 0.273213 4.60279C0.0798815 4.42109 0.0750597 4.12181 0.262442 3.93434L3.25157 0.94377C3.3434 0.851903 3.4697 0.800049 3.60163 0.800049C3.73357 0.800049 3.85987 0.851903 3.95169 0.94377L6.94082 3.93434C7.1282 4.12181 7.12338 4.42109 6.93005 4.60279C6.73672 4.7845 6.42809 4.77982 6.2407 4.59235L4.08913 2.43974L4.08913 6.9455C4.08913 8.77306 5.61696 10.2546 7.50163 10.2546L9.3875 10.2546C9.65674 10.2546 9.875 10.4662 9.875 10.7273Z" fill="#737373"/>
</svg>
