<svg width="12" height="12" viewBox="0 0 12 12" fill="none" xmlns="http://www.w3.org/2000/svg">
<path fill-rule="evenodd" clip-rule="evenodd" d="M2.82804 0C3.16555 0 3.43915 0.268629 3.43915 0.6V0.925709H8.44444V0.6C8.44444 0.268629 8.71805 0 9.05556 0C9.39306 0 9.66667 0.268629 9.66667 0.6V1.00254C10.7298 1.27603 11.5 2.24649 11.5 3.37713L11.5 9.54858C11.5 10.8864 10.4217 12 9.05556 12H2.94444C1.5783 12 0.5 10.8864 0.5 9.54858V3.37713C0.5 2.28819 1.2144 1.34782 2.21693 1.03562V0.6C2.21693 0.268629 2.49054 0 2.82804 0ZM2.94444 2.12571C2.28554 2.12571 1.72222 2.66995 1.72222 3.37713V3.54855H10.2778V3.37713C10.2778 2.66995 9.71446 2.12571 9.05556 2.12571H2.94444ZM10.2778 4.74855H1.72222V9.54858C1.72222 10.2558 2.28554 10.8 2.94444 10.8H9.05556C9.71446 10.8 10.2778 10.2558 10.2778 9.54858L10.2778 4.74855ZM6.53544 5.44407C6.76591 5.53594 6.91667 5.75578 6.91667 6V8.4857H7.22222C7.55973 8.4857 7.83333 8.75433 7.83333 9.0857C7.83333 9.41707 7.55973 9.6857 7.22222 9.6857H5.38889C5.05138 9.6857 4.77778 9.41707 4.77778 9.0857C4.77778 8.75433 5.05138 8.4857 5.38889 8.4857H5.69444V7.4455C5.46362 7.57646 5.16348 7.54737 4.9629 7.35591C4.7209 7.12491 4.71546 6.74505 4.95073 6.50746L5.86739 5.58175C6.04078 5.40665 6.30497 5.3522 6.53544 5.44407Z" fill="#737373"/>
</svg>
