<svg width="12" height="12" viewBox="0 0 12 12" fill="none" xmlns="http://www.w3.org/2000/svg">
<path fill-rule="evenodd" clip-rule="evenodd" d="M5.71816 0.0758347C5.89256 -0.0252782 6.10744 -0.0252782 6.28184 0.0758347L10.9682 2.79282C11.1426 2.89393 11.25 3.08079 11.25 3.28302V8.71698C11.25 8.91921 11.1426 9.10607 10.9682 9.20718L6.28184 11.9242C6.10744 12.0253 5.89256 12.0253 5.71816 11.9242L1.03184 9.20718C0.857436 9.10607 0.75 8.91921 0.75 8.71698V3.28302C0.75 3.08079 0.857436 2.89393 1.03184 2.79282L5.71816 0.0758347ZM1.87735 3.60982V8.39018L6 10.7804L10.1226 8.39018V3.60982L6 1.21964L1.87735 3.60982ZM3.1432 4.70018C3.29766 4.42876 3.64198 4.33446 3.91228 4.48956L6.00006 5.68757L8.08784 4.48956C8.35813 4.33446 8.70246 4.42876 8.85691 4.70018C9.01136 4.97161 8.91746 5.31738 8.64716 5.47248L6.56373 6.66799V8.31818C6.56373 8.63079 6.31137 8.88422 6.00006 8.88422C5.68875 8.88422 5.43638 8.63079 5.43638 8.31818V6.66799L3.35295 5.47248C3.08266 5.31738 2.98875 4.97161 3.1432 4.70018Z" fill="#737373"/>
</svg>
