<svg width="16" height="16" viewBox="0 0 16 16" fill="none" xmlns="http://www.w3.org/2000/svg">
<path fill-rule="evenodd" clip-rule="evenodd" d="M8 0C8.53882 5.81509e-08 8.97561 0.436795 8.97561 0.97561L8.97561 7.02439H15.0244C15.5632 7.02439 16 7.46118 16 8C16 8.53881 15.5632 8.97561 15.0244 8.97561H8.97561L8.97561 15.0244C8.97561 15.5632 8.53881 16 8 16C7.46119 16 7.02439 15.5632 7.02439 15.0244L7.02439 8.97561H0.97561C0.436795 8.97561 0 8.53881 0 8C0 7.46119 0.436795 7.02439 0.97561 7.02439H7.02439L7.02439 0.97561C7.02439 0.436795 7.46119 0 8 0Z" fill="#1D4ED8"/>
</svg>
