<svg width="18" height="18" viewBox="0 0 18 18" fill="none" xmlns="http://www.w3.org/2000/svg">
<rect width="18" height="18" rx="4" fill="#F59E0B" fill-opacity="0.15"/>
<path fill-rule="evenodd" clip-rule="evenodd" d="M14 1H4C2.34315 1 1 2.34315 1 4V14C1 15.6569 2.34315 17 4 17H14C15.6569 17 17 15.6569 17 14V4C17 2.34315 15.6569 1 14 1ZM4 0C1.79086 0 0 1.79086 0 4V14C0 16.2091 1.79086 18 4 18H14C16.2091 18 18 16.2091 18 14V4C18 1.79086 16.2091 0 14 0H4Z" fill="#F59E0B"/>
<path fill-rule="evenodd" clip-rule="evenodd" d="M5.625 2.25L5.625 15.75H4.5L4.5 2.25H5.625Z" fill="#F59E0B"/>
<path fill-rule="evenodd" clip-rule="evenodd" d="M9.5625 2.25L9.5625 15.75H8.4375L8.4375 2.25H9.5625Z" fill="#F59E0B"/>
</svg>
